<?xml version="1.0" standalone="no"?>
<!DOCTYPE svg>
<svg version="1.0"
     xmlns="http://www.w3.org/2000/svg"
     width="69pt"
     height="69pt"
     viewBox="0 0 69 69">

  <g transform="translate(-163,224) scale(0.1,-0.1)"
     fill="#000000"
     stroke="none">
    <path d="M1681 2011 c-8 -13 -11 -75 -9 -178 l3 -158 90 0 c78 0 94 3 123 23
69 50 92 154 51 238 -30 62 -74 86 -169 92 -71 4 -79 3 -89 -17z m164 -35 c91
-38 102 -180 19 -245 -20 -16 -41 -21 -85 -21 l-59 0 0 140 0 140 45 0 c25 0
61 -6 80 -14z" />
    <path d="M2143 2015 c-56 -24 -77 -99 -40 -143 6 -7 39 -26 74 -42 56 -26 63
-32 63 -58 0 -73 -86 -85 -115 -15 -17 41 -41 39 -38 -3 1 -18 14 -40 34 -58
27 -24 38 -27 73 -23 53 7 86 44 86 95 -1 49 -16 67 -81 96 -30 13 -61 31 -68
39 -17 21 -6 53 24 73 20 13 28 14 52 2 15 -7 30 -24 33 -38 9 -37 40 -39 40
-3 0 33 -29 69 -67 84 -30 11 -31 11 -70 -6z" />
  </g>
</svg>