<?xml version="1.0" standalone="no"?>
<!DOCTYPE svg>
<svg version="1.0"
     xmlns="http://www.w3.org/2000/svg"
     width="400pt"
     height="300pt"
     viewBox="0 0 400 300">

  <g transform="translate(-100,460) scale(0.1,-0.1)"
     fill="#000000"
     stroke="none">
    <path d="M2982 3478 c2 -84 6 -103 18 -103 12 0 16 19 18 103 3 97 2 102 -18
102 -20 0 -21 -5 -18 -102z" />
    <path d="M2520 3377 c0 -20 136 -150 149 -143 21 13 11 32 -52 94 -59 59 -97
78 -97 49z" />
    <path d="M3382 3327 c-62 -63 -72 -80 -51 -93 13 -7 149 123 149 143 0 29 -39
9 -98 -50z" />
    <path d="M2691 3158 c-48 -64 -68 -112 -80 -189 -19 -113 18 -233 96 -319 38
-43 50 -48 59 -25 4 9 -8 31 -31 56 -61 68 -79 120 -80 229 0 109 17 159 80
229 22 24 35 47 31 56 -10 28 -35 15 -75 -37z" />
    <path d="M3234 3195 c-4 -9 9 -32 31 -56 62 -69 80 -120 80 -229 0 -85 -3
-101 -28 -150 -16 -30 -42 -69 -59 -87 -19 -19 -28 -38 -25 -47 10 -24 21 -20
60 24 78 86 115 206 96 319 -12 77 -32 125 -80 189 -40 52 -65 65 -75 37z" />
    <path d="M2980 3055 c0 -39 -6 -42 -38 -19 -44 31 -59 -12 -15 -44 l28 -20
-28 -13 c-34 -16 -38 -54 -4 -46 12 2 30 8 39 12 13 5 17 0 20 -27 2 -21 8
-33 18 -33 10 0 16 12 18 33 3 27 7 32 20 27 9 -4 27 -10 40 -12 32 -8 29 30
-4 47 l-25 14 25 19 c43 31 27 73 -16 43 -32 -23 -38 -20 -38 19 0 28 -4 35
-20 35 -16 0 -20 -7 -20 -35z" />
    <path d="M2332 2913 c3 -16 15 -18 103 -18 82 0 100 3 100 15 0 12 -19 16
-103 18 -95 2 -103 1 -100 -15z" />
    <path d="M3464 2919 c-13 -22 16 -30 107 -27 80 3 94 6 97 21 3 15 -7 17 -97
17 -61 0 -102 -4 -107 -11z" />
    <path d="M2874 2836 c-3 -9 9 -59 27 -111 25 -72 38 -95 51 -95 26 0 22 31
-15 129 -32 84 -51 107 -63 77z" />
    <path d="M3096 2841 c-13 -21 -66 -174 -66 -192 0 -12 7 -19 18 -19 13 0 26
23 51 95 31 89 35 125 12 125 -5 0 -12 -4 -15 -9z" />
    <path d="M2855 2519 c-15 -24 17 -29 151 -27 116 3 139 6 139 18 0 12 -24 15
-142 18 -96 2 -144 -1 -148 -9z" />
    <path d="M2855 2429 c-15 -24 17 -29 151 -27 116 3 139 6 139 18 0 12 -24 15
-142 18 -96 2 -144 -1 -148 -9z" />
    <path d="M2933 2349 c-25 -25 -2 -39 67 -39 69 0 92 14 67 39 -14 14 -120 14
-134 0z" />
    <path d="M1681 2011 c-8 -13 -11 -75 -9 -178 l3 -158 90 0 c78 0 94 3 123 23
69 50 92 154 51 238 -30 62 -74 86 -169 92 -71 4 -79 3 -89 -17z m164 -35 c91
-38 102 -180 19 -245 -20 -16 -41 -21 -85 -21 l-59 0 0 140 0 140 45 0 c25 0
61 -6 80 -14z" />
    <path d="M2143 2015 c-56 -24 -77 -99 -40 -143 6 -7 39 -26 74 -42 56 -26 63
-32 63 -58 0 -73 -86 -85 -115 -15 -17 41 -41 39 -38 -3 1 -18 14 -40 34 -58
27 -24 38 -27 73 -23 53 7 86 44 86 95 -1 49 -16 67 -81 96 -30 13 -61 31 -68
39 -17 21 -6 53 24 73 20 13 28 14 52 2 15 -7 30 -24 33 -38 9 -37 40 -39 40
-3 0 33 -29 69 -67 84 -30 11 -31 11 -70 -6z" />
    <path d="M2422 2017 c-9 -11 -12 -59 -10 -178 l3 -164 90 0 c78 0 94 3 123 23
97 70 94 242 -5 303 -47 29 -182 40 -201 16z m163 -41 c87 -37 101 -176 24
-241 -26 -21 -41 -25 -95 -25 l-64 0 0 133 c0 74 3 137 7 140 12 12 93 7 128
-7z" />
    <path d="M2842 2022 c-9 -7 -12 -49 -10 -178 l3 -169 95 0 c78 0 95 3 95 15 0
12 -17 16 -77 18 l-78 3 0 59 0 59 68 3 c52 2 67 6 67 18 0 12 -15 16 -67 18
l-68 3 0 59 0 60 74 0 c73 0 104 13 75 31 -18 11 -160 11 -177 1z" />
    <path d="M3193 2015 c-32 -14 -63 -59 -63 -92 0 -34 31 -63 96 -93 57 -26 64
-32 64 -58 0 -75 -94 -84 -119 -11 -13 38 -37 33 -34 -7 1 -18 14 -40 34 -58
27 -24 38 -27 73 -23 53 7 86 44 86 96 0 45 -24 71 -90 99 -55 23 -74 44 -65
72 18 58 93 58 113 1 13 -38 42 -42 42 -6 0 30 -46 81 -80 88 -14 3 -39 0 -57
-8z" />
    <path d="M3472 2021 c-9 -6 -12 -51 -10 -177 3 -151 5 -169 21 -172 16 -3 17
10 17 172 0 96 -4 177 -8 180 -4 2 -13 1 -20 -3z" />
    <path d="M3756 2016 c-83 -31 -136 -115 -121 -195 20 -112 145 -181 248 -137
56 23 68 46 65 117 l-3 64 -72 3 c-68 3 -73 1 -73 -18 0 -18 6 -20 55 -20 l55
0 0 -38 c0 -49 -25 -73 -82 -79 -110 -11 -191 104 -140 197 39 71 141 97 203
51 29 -22 59 -22 59 -1 0 17 -73 58 -115 64 -24 3 -56 0 -79 -8z" />
    <path d="M4097 2023 c-4 -3 -7 -85 -7 -180 0 -161 1 -174 18 -171 15 3 18 19
22 128 l5 124 80 -127 c52 -84 85 -127 95 -125 12 3 15 30 18 167 2 158 -4
201 -29 185 -5 -3 -9 -61 -9 -130 0 -70 -4 -123 -9 -120 -5 3 -41 57 -80 119
-72 116 -93 142 -104 130z" />
  </g>
</svg>