<?xml version="1.0" encoding="UTF-8"?>
<!DOCTYPE svg
          PUBLIC "-//W3C//DTD SVG 1.1//EN" "http://www.w3.org/Graphics/SVG/1.1/DTD/svg11.dtd">
<svg xmlns="http://www.w3.org/2000/svg"
     version="1.1"
     width="1705px"
     height="1365px"
     style="shape-rendering:geometricPrecision; text-rendering:geometricPrecision; image-rendering:optimizeQuality; fill-rule:evenodd; clip-rule:evenodd"
     xmlns:xlink="http://www.w3.org/1999/xlink">
  <g>
    <path style="opacity:0.992"
          fill="#a3a3a3"
          d="M 518.5,106.5 C 622.501,106.333 726.501,106.5 830.5,107C 870.547,107.338 910.214,111.338 949.5,119C 1038.89,139.061 1107.39,187.894 1155,265.5C 1190.2,331.45 1193.87,399.116 1166,468.5C 1130.81,539.358 1076.64,589.858 1003.5,620C 962.927,635.515 920.927,644.515 877.5,647C 758.174,648.435 638.841,648.935 519.5,648.5C 520.065,563.666 520.731,478.833 521.5,394C 520.177,298.17 519.177,202.336 518.5,106.5 Z M 815.5,132.5 C 880.092,128.987 942.092,139.82 1001.5,165C 1061.22,193.388 1105.72,237.222 1135,296.5C 1163.05,367.987 1155.39,435.321 1112,498.5C 1075.1,548.704 1026.94,583.537 967.5,603C 944.806,611.139 921.473,616.472 897.5,619C 870.189,620.802 842.856,621.969 815.5,622.5C 814.319,561.171 813.319,499.838 812.5,438.5C 813.524,336.499 814.524,234.499 815.5,132.5 Z" />
  </g>
  <g>
    <path style="opacity:0.988"
          fill="#a3a3a3"
          d="M 1183.5,542.5 C 1334.52,580.172 1485.52,618.006 1636.5,656C 1638.49,658.47 1638.99,661.303 1638,664.5C 1503.42,745.541 1368.92,826.708 1234.5,908C 1232.98,909.009 1231.31,909.509 1229.5,909.5C 1224.17,865.488 1218.67,821.488 1213,777.5C 1212.18,774.446 1212.35,771.446 1213.5,768.5C 1278.5,729.333 1343.5,690.167 1408.5,651C 1335.83,632.667 1263.17,614.333 1190.5,596C 1187.8,578.254 1185.47,560.421 1183.5,542.5 Z" />
  </g>
  <g>
    <path style="opacity:0.988"
          fill="#a3a3a3"
          d="M 452.5,678.5 C 453.117,678.611 453.617,678.944 454,679.5C 458.34,696.853 462.34,714.186 466,731.5C 404.5,774.333 343,817.167 281.5,860C 356.574,873.515 431.574,887.348 506.5,901.5C 517.776,945.707 528.609,990.041 539,1034.5C 539.798,1036.26 539.631,1037.93 538.5,1039.5C 382.227,1010.87 226.06,981.872 70,952.5C 68.8814,949.943 68.7147,947.443 69.5,945C 197.582,856.637 325.249,767.804 452.5,678.5 Z" />
  </g>
  <g>
    <path style="opacity:0.993"
          fill="#fdcd25"
          d="M 856.5,679.5 C 927.654,676.06 996.988,685.56 1064.5,708C 1082.95,714.558 1100.28,723.224 1116.5,734C 1121.67,737.833 1126.17,742.333 1130,747.5C 1132.72,753.578 1131.22,758.411 1125.5,762C 1114.88,766.945 1104.55,766.279 1094.5,760C 1056.06,735.13 1014.06,719.13 968.5,712C 937.241,705.773 905.908,705.107 874.5,710C 863.597,712.199 854.43,717.365 847,725.5C 843.734,730.702 842.734,736.369 844,742.5C 847.961,753.761 853.961,763.761 862,772.5C 879.945,790.118 898.778,806.618 918.5,822C 986.507,870.996 1052.51,922.662 1116.5,977C 1140.16,997.316 1159.33,1021.15 1174,1048.5C 1192.94,1091.46 1186.94,1130.46 1156,1165.5C 1134.35,1188.25 1108.85,1205.42 1079.5,1217C 1032.83,1235.42 984.492,1247.09 934.5,1252C 883.86,1257.4 833.193,1257.74 782.5,1253C 712.226,1246.46 646.893,1225.13 586.5,1189C 579.088,1184.26 572.255,1178.76 566,1172.5C 557.797,1163.17 558.964,1155.34 569.5,1149C 579.637,1145.16 589.304,1146.16 598.5,1152C 638.133,1182.65 682.466,1203.98 731.5,1216C 772.837,1227.13 814.837,1231.13 857.5,1228C 868.96,1227.07 879.627,1223.73 889.5,1218C 896.993,1211.85 899.493,1204.02 897,1194.5C 894.553,1186.27 890.553,1178.94 885,1172.5C 863.901,1151.23 841.401,1131.73 817.5,1114C 760.048,1071.93 704.048,1027.93 649.5,982C 629.894,964.731 612.061,945.898 596,925.5C 580.896,905.953 571.23,883.953 567,859.5C 563.289,818.43 577.122,784.597 608.5,758C 645.095,729.44 686.095,709.44 731.5,698C 772.657,687.383 814.324,681.216 856.5,679.5 Z" />
  </g>
</svg>